# xmcd CD database file
#
# Track frame offsets:
#	150
#	21429
#	40678
#	64091
#	85987
#	107136
#	128478
#	148943
#	171076
#	189869
#	216302
#	240395
#	261709
#	287057
#	308805
#	331987
#
# Disc length: 4668 seconds
#
# Revision: 1
# Processed by: cddbd v1.5.2PL0 Copyright (c) Steve Scherf et al.
# Submitted via: CDex 1.70beta3
#
DISCID=ec123a10
DTITLE=RIP SLYME - "GOOD JOB !" CHRISTMAS EDITION
DYEAR=1900
DGENRE=Hip Hop
TTITLE0=STEPPER'S DELIGHT
TTITLE1=雑念エンタテインメント
TTITLE2=運命共同体
TTITLE3=One
TTITLE4=FUNKASTIC
TTITLE5=楽園ベイベー
TTITLE6=BLUE BE-BOP
TTITLE7=JOINT
TTITLE8=HOTTER THAN JULY
TTITLE9=Dandelion
TTITLE10=GALAXY
TTITLE11=Super Shooter
TTITLE12=黄昏サラウンド
TTITLE13=マタ逢ウ日マデ
TTITLE14=UNDER THE SUN (new song)
TTITLE15=MORE&MORE (new song)
EXTD=
EXTT0=
EXTT1=
EXTT2=
EXTT3=
EXTT4=
EXTT5=
EXTT6=
EXTT7=
EXTT8=
EXTT9=
EXTT10=
EXTT11=
EXTT12=
EXTT13=
EXTT14=
EXTT15=
PLAYORDER=
